<svg xmlns="http://www.w3.org/2000/svg" viewBox="0 0 64 64">
  <defs>
    <linearGradient id="g" x1="0%" y1="0%" x2="100%" y2="100%">
      <stop offset="0%" stop-color="#0d6efd"/>
      <stop offset="100%" stop-color="#0b5ed7"/>
    </linearGradient>
  </defs>
  <rect width="64" height="64" rx="14" fill="url(#g)"/>
  <path d="M22 13h20a4 4 0 0 1 4 4v30a4 4 0 0 1-4 4H22a4 4 0 0 1-4-4V17a4 4 0 0 1 4-4zm4 6a2 2 0 0 0-2 2v22a2 2 0 0 0 2 2h12a2 2 0 0 0 2-2V21a2 2 0 0 0-2-2H26zm6 28a2.6 2.6 0 1 0 0 5.2 2.6 2.6 0 0 0 0-5.2z" fill="#fff"/>
  <path d="M27 25h10a2 2 0 0 1 0 4H27a2 2 0 0 1 0-4zm0 7h10a2 2 0 0 1 0 4H27a2 2 0 0 1 0-4z" fill="#dfeaff"/>
</svg>
